# xmcd
#
# Track frame offsets:
#  150
#  22932
#  36361
#  68530
#  86418
#  103169
#  122321
#  142253
#  161090
#  182792
#  198296
#
# Disc length: 2861 seconds
#
# Revision: 0
# Processed by: cddbd v1.5.1PL2 Copyright (c) Steve Scherf et al.
# Submitted via: Collectorz.com_Music_Collector 6.9
#
DISCID=8f0b2b0b
DTITLE=Lubos Bena - Charlie Slavik - Lubos Bena Live
DYEAR=2005
DGENRE=Blues -  Blues Guitar
TTITLE0=Two Trains
TTITLE1=Minnibelle
TTITLE2=61 Highway
TTITLE3=Cotton Fields
TTITLE4=Walking The Dog
TTITLE5=Rambling On My Mind
TTITLE6=Mississippi
TTITLE7=Key To The Highway
TTITLE8=John Henry
TTITLE9=Squaw Teat Mountain Breakdown
TTITLE10=Pick A Bale Of Cotton
EXTD=
EXTT0=
EXTT1=
EXTT2=
EXTT3=
EXTT4=
EXTT5=
EXTT6=
EXTT7=
EXTT8=
EXTT9=
EXTT10=
PLAYORDER=
